# ProBuilder 5.0.0
# https://unity3d.com/unity/features/worldbuilding/probuilder
# 27/12/2021 10:27:46

mtllib ./Pod_Glass.mtl
o Pod Glass

g Shape
v 5.103625 -4.846305 -1.557178
v 5.103625 4.846301 -1.557178
v 5.319131 -4.846305 -1.911702
v 5.319131 4.846301 -1.911702
v 5.220513 -5.046304 -2.179175
v 5.220513 5.046303 -2.179175
v 2.916375 -5.046304 -2.515141
v 2.916375 5.046303 -2.515141
v 2.06308 -1.534011 -2.478238
v 2.06308 4.900813 -2.597867
v 0.08793472 -1.534011 -2.65324
v 0.08793472 4.900813 -2.772869
v -0.08794683 -1.534011 -2.65324
v -0.08794683 4.900813 -2.772869
v -2.063099 -1.534011 -2.478238
v -2.063099 4.900813 -2.597867
v -2.916381 -5.046304 -2.515141
v -2.916381 5.046303 -2.515141
v -5.220511 -5.046304 -2.179176
v -5.220511 5.046303 -2.179176
v -4.99672 -4.846305 -1.911705
v -4.99672 4.846301 -1.911705
v -5.10363 -4.846305 -1.55718
v -5.10363 4.846301 -1.55718
v 5.767647 -5.046304 -1.532997
v 5.767647 5.046303 -1.532997
v 6.06518 -5.046304 -1.553617
v 6.06518 5.046303 -1.553617
v -9.758438E-08 -5.046305 -2.576253
v 2.528767 -5.046305 -2.450162
v -1.303704E-07 -5.046305 -2.577253
v 2.763814 -5.046304 -2.507828
v 2.528767 5.046305 -2.450162
v -9.758438E-08 5.046305 -2.576253
v 2.763814 5.046303 -2.507828
v -1.303704E-07 5.046305 -2.577253
v -2.528767 -5.046305 -2.450162
v -2.76382 -5.046304 -2.507828
v -2.528767 5.046305 -2.450162
v -2.76382 5.046303 -2.507828
v -5.767653 5.046303 -1.532998
v -5.767653 -5.046304 -1.532998
v -6.065185 5.046303 -1.553618
v -6.065185 -5.046304 -1.553618
v 6.099676 -4.846304 -1.682595
v 6.099676 4.846303 -1.682595
v 5.583301 -4.846304 -2.037118
v 5.21959 -5.046304 -2.128722
v 5.583301 4.846303 -2.037118
v 5.21959 5.046303 -2.128722
v -5.5833 4.846303 -2.03712
v -5.5833 -4.846304 -2.03712
v -6.09968 -4.846304 -1.682595
v -5.219588 -5.046304 -2.128723
v -6.09968 4.846303 -1.682595
v -5.219588 5.046303 -2.128723
v 4.81 -5.046305 -2.084232
v 0.001784664 -4.947194 -2.471558
v 0.003403393 -4.947194 -2.08629
v -2.681383E-06 -4.947194 -2.604311
v -0.001790027 -4.947194 -2.471557
v -4.809997 -5.046305 -2.084233
v -0.003408755 -4.947194 -2.086292
v -4.809997 5.046305 -2.084233
v -0.001790027 4.947196 -2.471565
v -0.003408755 4.947196 -2.086294
v -2.681383E-06 4.947196 -2.604321
v 0.001784664 4.947196 -2.471564
v 4.81 5.046305 -2.084232
v 0.003403393 4.947196 -2.086293
v -4.747166 4.602912 -2.206237
v -4.747166 -4.919731 -2.206237
v 4.747154 4.602912 -2.206236
v 4.747154 -4.919731 -2.206236
v -5.368131 5.046303 -1.51917
v -5.368131 -5.046304 -1.51917
v 5.368126 -5.046304 -1.519169
v 5.368126 5.046303 -1.519169
v -5.407773 5.046303 -1.638691
v -0.003948331 4.947196 -1.486227
v -5.368166 5.042741 -1.517986
v -5.407773 -5.046304 -1.638691
v -5.368166 -5.042742 -1.517986
v -0.003948331 -4.947194 -1.486227
v 5.407768 -5.046304 -1.638691
v 0.003942969 -4.947194 -1.486226
v 5.368161 -5.042742 -1.517985
v 5.407768 5.046303 -1.638691
v 5.368161 5.042741 -1.517985
v 0.003942969 4.947196 -1.486224
v -5.507705 -4.968966 -1.674471
v -5.507705 5.046303 -1.674471
v 5.507693 5.046303 -1.67447
v 5.507693 -4.968966 -1.67447
v 2.032344 4.900813 -2.52989
v 2.004988 -1.534011 -2.503194
v 0.05643023 -1.534011 -2.685717
v 0.05719913 4.900813 -2.651538
v -0.05720449 4.900813 -2.651538
v -0.05643559 -1.534011 -2.685717
v -2.005 -1.534011 -2.503194
v -2.032357 4.900813 -2.52989

vt -4.076237 -4.846304
vt -4.076237 4.846303
vt -3.449875 -4.846304
vt -3.449875 4.846303
vt -4.851468 -5.046304
vt -4.851468 5.046303
vt -2.522965 -5.046304
vt -2.522965 5.046303
vt -2.644272 -4.968496
vt -2.644272 4.968495
vt 0.04241066 -4.968496
vt 0.04241066 4.968495
vt -0.0424053 -4.968496
vt -0.0424053 4.968495
vt 2.644278 -4.968496
vt 2.644278 4.968495
vt 2.522971 -5.046304
vt 2.522971 5.046303
vt 4.851466 -5.046304
vt 4.851466 5.046303
vt 3.449891 -4.846304
vt 3.449891 4.846303
vt 4.076259 -4.846304
vt 4.076259 4.846303
vt 5.870231 -5.046304
vt 5.870231 5.046303
vt 6.168839 -5.046304
vt 6.168839 5.046303
vt -1.620052E-06 -2.576222
vt 2.528765 -2.450132
vt -1.652838E-06 -2.577222
vt 2.763813 -2.507797
vt -2.528761 -2.450057
vt -2.763809 -2.507723
vt -5.870236 5.046303
vt -5.870236 -5.046304
vt -6.168844 5.046303
vt -6.168844 -5.046304
vt 3.201457 -4.846304
vt 3.201457 4.846303
vt 3.067945 -5.046304
vt 3.067945 5.046303
vt -3.449873 -1.417756
vt -4.076235 -1.417756
vt -3.098181 -1.656481
vt -4.120799 -1.65403
vt -4.076235 1.524212
vt -3.449873 1.524212
vt -4.120799 1.760515
vt -3.098181 1.762906
vt -4.456174 4.846303
vt -4.456174 -4.846304
vt -4.066565 5.046303
vt -4.066565 -5.046304
vt 4.066572 5.046303
vt 4.066572 -5.046304
vt 4.456182 4.846303
vt 4.456182 -4.846304
vt 4.076257 -1.524231
vt 3.449889 -1.524231
vt 4.12082 -1.760534
vt 3.098196 -1.762925
vt 3.449889 1.417778
vt 4.076256 1.417778
vt 3.098196 1.656503
vt 4.12082 1.654051
vt -3.201445 4.846303
vt -3.201445 -4.846304
vt -3.067934 5.046303
vt -3.067934 -5.046304
vt 2.570704 -2.097935
vt 2.155632 -2.189543
vt 2.156441 -2.239998
vt -2.570685 -2.097878
vt -2.155612 -2.189486
vt -2.156422 -2.239941
vt 2.155614 -2.189487
vt -2.155634 -2.189543
vt -5.885823 -4.846304
vt -5.885823 4.846303
vt -5.285985 -4.846305
vt -5.285985 4.846301
vt 6.099679 -1.682593
vt 5.583298 -2.037117
vt 5.103628 -1.557178
vt 4.996718 -1.911702
vt -5.583312 -2.037137
vt -6.099692 -1.682613
vt -4.996732 -1.911722
vt -5.103642 -1.557198
vt 6.262096 4.846303
vt 6.262096 -4.846304
vt 5.258181 4.846301
vt 5.258181 -4.846305
vt -6.262093 -4.846304
vt -6.262093 4.846303
vt -5.258177 -4.846305
vt -5.258177 4.846301
vt -5.319126 -1.911694
vt 5.319139 -1.911713
vt 5.91742 4.846303
vt 5.91742 -4.846304
vt 5.624991 4.846301
vt 5.624991 -4.846305
vt 2.735372 -3.60557
vt 5.014653 -3.227666
vt 0.2064536 -3.627666
vt 0.2080709 -3.25459
vt -0.1282993 -4.155849
vt 2.403609 -4.155849
vt -0.1296992 -4.052852
vt -0.1213028 -4.088903
vt -2.764085 -5.162371
vt -0.2381351 -5.335977
vt -0.235246 -5.191827
vt -0.2334606 -5.288305
vt -4.91328 -2.699239
vt -2.632537 -3.068194
vt -0.1056693 -2.701315
vt -0.1040509 -3.083424
vt 0.128299 4.155473
vt -2.403609 4.155473
vt 0.1296943 4.052476
vt 0.1212978 4.08854
vt -0.2381442 -5.336014
vt -5.368131 5.046303
vt -5.368131 -5.046304
vt 5.368126 5.046303
vt 5.368126 -5.046304
vt -5.817227 5.046303
vt -5.817227 -5.046304
vt -5.417466 5.046303
vt -5.417466 -5.046304
vt 5.817221 -5.046304
vt 5.817221 5.046303
vt 5.417461 -5.046304
vt 5.417461 5.046303
vt 5.408252 -1.634462
vt 5.767492 -1.530058
vt 6.06517 -1.553614
vt 5.219573 -2.128719
vt 4.809982 -2.084229
vt 4.904393 -2.145454
vt 0.09679069 -2.147412
vt 0.09733017 -1.547391
vt 5.462396 -1.579077
vt 5.502062 -1.699807
vt -4.809997 -2.084237
vt -5.219588 -2.128726
vt -6.065185 -1.553622
vt -5.767507 -1.530065
vt -5.408267 -1.63447
vt -5.502065 -1.699804
vt -5.462399 -1.579074
vt -0.09733299 -1.547388
vt -0.09679351 -2.147408
vt -4.904397 -2.145452
vt 4.718201 -5.046304
vt 4.718201 5.046303
vt 4.927005 -4.968966
vt 4.927005 5.046303
vt -5.368131 -1.51917
vt 5.368126 -1.519169
vt -5.507705 -1.674471
vt 5.507693 -1.67447
vt -4.718121 5.046303
vt -4.718121 -5.046304
vt -4.92692 5.046303
vt -4.92692 -4.968966
vt -5.368126 0.8896219
vt 5.368131 0.8896208
vt -5.507693 0.7161301
vt 5.507705 0.7161291
vt -3.554287 -4.968966
vt -3.554287 5.046303
vt -2.626281 -4.919731
vt -2.626281 4.602912
vt -5.507706 1.945584
vt 5.507692 1.945585
vt -4.747167 1.253219
vt 4.747153 1.25322
vt 3.554277 5.046303
vt 3.554277 -4.968966
vt 2.626272 4.602912
vt 2.626272 -4.919731
vt -5.507693 -1.209225
vt 5.507705 -1.209226
vt -4.747154 -1.743265
vt 4.747166 -1.743266
vt -2.874012 5.046303
vt -2.874012 -5.046304
vt -1.989858 4.900813
vt -1.962951 -1.534011
vt 0.1942922 -1.446866
vt -1.762795 -1.446866
vt 0.240361 -4.960985
vt -2.517882 -4.954905
vt -1.872981 5.253811
vt 0.1059069 5.253811
vt -2.604424 5.4011
vt 0.1584315 5.385428
vt -0.05719913 4.88666
vt -0.05643023 -1.548254
vt 0.05720449 4.88666
vt 0.05643559 -1.548254
vt 1.762808 -1.591149
vt -0.194286 -1.591149
vt 2.517888 -5.104251
vt -0.24036 -5.100204
vt -0.105901 3.075541
vt 1.872993 3.075541
vt -0.1584307 3.240463
vt 2.604429 3.193086
vt 1.988089 4.911597
vt 1.9612 -1.523284
vt 2.872236 5.057089
vt 2.872236 -5.035428
vt -2.916365 -2.515073
vt -5.220502 -2.179107
vt 5.22051 -2.179157
vt 2.916373 -2.515123
vt -3.033453 3.831666
vt -2.151142 3.675388
vt -2.880717 3.831667
vt -3.033456 -5.024683
vt -2.122541 -1.512247
vt -2.880719 -5.024683
vt -0.05643023 -1.450382
vt 1.303704E-07 -4.96435
vt 0.05643559 -1.450382
vt -0.05719913 3.159045
vt 1.303704E-07 3.322404
vt 0.05720449 3.159045
vt 2.122546 -1.512249
vt 2.880717 -5.024685
vt 3.033453 -5.024685
vt 2.151146 3.675461
vt 2.880714 3.831739
vt 3.033451 3.831738
vt 0.8541719 -1.517017
vt 0.8687702 4.917903
vt 0.9173975 -1.517017
vt 0.8701792 4.918313
vt -0.05643023 -2.685717
vt -2.004988 -2.503194
vt -0.08793472 -2.65324
vt -2.06308 -2.478238
vt -2.032344 -2.52989
vt -0.05719913 -2.651538
vt -2.06308 -2.597867
vt -0.08793472 -2.772869
vt -2.584395 4.899962
vt -2.617338 -1.534868
vt -2.709558 4.899962
vt -2.593592 -1.534814
vt -1.888229 -1.540904
vt -1.863164 4.893961
vt -1.842978 -1.540904
vt -1.928835 4.893577
vt 2.005 -2.503194
vt 0.05643559 -2.685717
vt 2.063099 -2.478238
vt 0.08794683 -2.65324
vt 0.05720449 -2.651538
vt 2.032357 -2.52989
vt 0.08794683 -2.772869
vt 2.063099 -2.597867
vt -3.142582 4.902553
vt -3.106985 -1.532286
vt -3.217187 4.902553
vt -3.108187 -1.532149

vn 0.8545091 0 0.5194365
vn 0.1442839 0 -0.9895363
vn 0.08824091 -0.01851514 -0.9959271
vn -0.08824062 -0.01851514 -0.9959271
vn -0.144284 0 -0.9895363
vn -0.9574143 0 -0.2887176
vn 0.06913747 0 0.9976072
vn 0 -1 0
vn 1.028007E-06 1 -2.061681E-05
vn -0.06913747 0 0.9976072
vn 0.9660451 0 0.2583735
vn 0.4741894 -0.5459998 -0.6906726
vn 0.4749805 -0.5395933 -0.6951053
vn 0.4757716 -0.5331867 -0.699538
vn 0.4790475 0.5325978 -0.6977486
vn 0.4759324 0.5370152 -0.6964712
vn 0.4728173 0.5414326 -0.6951938
vn 0.3646148 0 -0.9311584
vn -0.3646128 0 -0.9311592
vn -0.4790456 -0.5325963 -0.6977511
vn -0.4759302 -0.5370141 -0.6964736
vn -0.4728148 -0.5414319 -0.6951961
vn -0.4741877 0.5459977 -0.6906754
vn -0.4749787 0.5395914 -0.6951079
vn -0.4757698 0.5331851 -0.6995404
vn -0.9660458 0 0.258371
vn 0.4801237 -0.8771568 0.008784882
vn 0.4801262 0.8771555 0.008776638
vn -0.4801258 0.8771557 0.00877663
vn -0.4801233 -0.8771571 0.008784874
vn -0.2090815 0 0.9778982
vn 0.1249259 0 -0.9921661
vn -0.1249273 0 -0.9921659
vn 0.4288774 0 0.9033628
vn -0.04006013 -0.9674846 0.2497374
vn -0.03033774 -0.983636 0.124912
vn -0.02061536 -0.9997875 8.661688E-05
vn -0.04792192 0.2720813 0.9610803
vn -0.04355859 -0.363575 0.480804
vn -0.03919527 -0.9992315 0.0005277107
vn 0.03427424 -0.7254943 0.6873743
vn 0.5170882 -0.3608285 0.3504183
vn 0.9999021 0.003837232 0.01346222
vn 0.02050104 -0.9915874 0.1278049
vn 0.02984666 -0.9954095 0.0639848
vn 0.03919228 -0.9992317 0.0001646704
vn 0.04005998 0.9674848 0.2497368
vn 0.03033744 0.9836361 0.1249117
vn 0.0206149 0.9997875 8.66143E-05
vn 0.04792059 -0.2721753 0.9610537
vn 0.04355749 0.3635281 0.4807907
vn 0.0391944 0.9992315 0.0005276885
vn -0.03427495 0.7254807 0.6873885
vn -0.5170886 0.3608471 0.3504252
vn -0.9999022 -0.003786408 0.01346195
vn -0.02050057 0.9915878 0.1278019
vn -0.02984591 0.9954098 0.06398327
vn -0.03919126 0.9992318 0.0001646636
vn -1.004468E-07 0 1
vn -0.03458931 0 0.9994016
vn 0.03458931 0 0.9994016
vn 0.01864707 0.9996378 0.01580717
vn 0.01913913 0.9996753 0.01186012
vn 0.01766318 0.999563 0.02370149
vn 0.01766424 -0.999563 0.02370085
vn 0.0191397 -0.9996753 0.01185959
vn 0.02061537 -0.9997875 1.853724E-05
vn 0.01864788 -0.9996378 0.01580668
vn -0.01864787 -0.9996378 0.01580651
vn -0.01913968 -0.9996753 0.01185946
vn -0.01766414 -0.999563 0.0237005
vn -0.01766296 0.999563 0.02370101
vn -0.01913911 0.9996753 0.01185999
vn -0.02061483 0.9997875 1.853665E-05
vn -0.01864706 0.9996378 0.015807
vn 0.7437617 0 -0.6684449
vn -0.7437787 0 -0.668426
vn -3.959678E-08 0.8951465 0.445772
vn 0.57302 0 0.8195414
vn -5.544351E-08 -0.7680421 0.6403993
vn -0.57302 0 0.8195414
vn -7.981915E-09 0.995741 0.09219495
vn 0.01668181 0 -0.9998608
vn -0.005966966 -0.00201266 -0.9997216
vn -0.02861574 -0.004025321 -0.9995824
vn 0.09321401 -0.03222824 -0.9951243
vn 0.05916241 -0.01274209 -0.9973931
vn 0.02511081 0.006744053 -0.999662
vn 0.06072245 -0.1557827 -0.9859232
vn 0.04149964 0.1528866 -0.9363773
vn 0.02227683 0.4615559 -0.8868313
vn 0 0.005311414 -0.9999859
vn -0.09324066 0.02145777 -0.9954123
vn -0.05916978 -0.004900935 -0.9973042
vn -0.0250989 -0.03125964 -0.9991961
vn -0.05423051 0.4708974 -0.8805195
vn -0.03966682 0.2481154 -0.9399416
vn -0.02510312 0.02533344 -0.9993638
vn -0.01737642 -0.004221918 -0.9998401
vn -0.002134479 -0.002110959 -0.9998771
vn 0.01310746 0 -0.9999141
vn -0.04457351 0.3651084 -0.9298973
vn -0.0478781 -0.009026234 -0.9988124
vn 0 -0.03086646 -0.9995235
vn 0 0.4547356 -0.8906265
vn 0.04787491 -0.009025316 -0.9988126
vn 0.04457087 0.3650911 -0.9299043
vn -0.3947001 0.00548981 0.9187936
vn 0.258231 0.006574405 0.6653851
vn 0.9111622 0.007659001 0.4119767
vn -0.9693792 0.001420144 -0.2455644
vn -0.1258343 -0.005761603 -0.4708928
vn 0.7177106 -0.01294335 -0.6962212
vn -0.7176915 0.003612908 -0.6963518
vn 0.1258329 -0.0004766219 -0.4709823
vn 0.9693573 -0.004566152 -0.2456127
vn -0.9111532 -0.002164097 0.4120621
vn -0.2582715 0.00745757 0.665376
vn 0.3946102 0.01707924 0.9186899

usemtl ProBuilderDefault
f 47/71/27 48/72/27 5/73/27
f 6/76/28 50/75/28 49/74/28
f 20/73/29 51/71/29 56/77/29
f 54/78/30 52/74/30 19/76/30
f 43/140/9 41/139/9 56/141/9
f 56/141/9 41/139/9 79/138/9
f 64/142/9 56/141/9 79/138/9
f 81/146/64 64/143/62 79/147/64
f 80/145/63 64/143/62 81/146/64
f 80/145/63 66/144/49 64/143/62
f 82/152/8 54/149/8 62/148/8
f 82/152/8 42/151/8 54/149/8
f 54/149/8 42/151/8 44/150/8
f 62/157/68 63/156/67 84/155/66
f 83/154/65 62/157/68 84/155/66
f 82/153/65 62/157/68 83/154/65
f 27/140/8 25/139/8 48/141/8
f 48/141/8 25/139/8 85/138/8
f 57/142/8 48/141/8 85/138/8
f 57/143/69 85/147/71 87/146/71
f 86/145/70 57/143/69 87/146/71
f 59/144/37 57/143/69 86/145/70
f 88/152/9 50/149/9 69/148/9
f 88/152/9 26/151/9 50/149/9
f 50/149/9 26/151/9 28/150/9
f 90/155/73 69/157/75 70/156/74
f 89/154/72 69/157/75 90/155/73
f 89/154/72 88/153/72 69/157/75
f 33/33/9 8/218/9 35/34/9
f 33/33/9 69/148/9 8/218/9
f 8/218/9 69/148/9 6/219/9
f 69/148/9 50/149/9 6/219/9
f 5/220/8 48/141/8 57/142/8
f 5/220/8 57/142/8 7/221/8
f 7/221/8 57/142/8 30/30/8
f 32/32/8 7/221/8 30/30/8
f 17/218/8 37/33/8 62/148/8
f 17/218/8 38/34/8 37/33/8
f 17/218/8 62/148/8 19/219/8
f 19/219/8 62/148/8 54/149/8
f 56/141/9 64/142/9 20/220/9
f 20/220/9 64/142/9 18/221/9
f 39/30/9 40/32/9 18/221/9
f 64/142/9 39/30/9 18/221/9
f 8/222/102 95/223/102 35/224/102
f 32/227/103 96/226/103 7/225/103
f 97/228/104 31/229/104 100/230/104
f 99/233/105 36/232/105 98/231/105
f 101/234/106 38/235/106 17/236/106
f 18/239/107 40/238/107 102/237/107
f 4/4/1 2/2/1 1/1/1
f 1/1/1 3/3/1 4/4/1
f 8/8/2 6/6/2 5/5/2
f 5/5/2 7/7/2 8/8/2
f 12/12/3 10/10/3 9/9/3
f 9/9/3 11/11/3 12/12/3
f 16/16/4 14/14/4 13/13/4
f 13/13/4 15/15/4 16/16/4
f 20/20/5 18/18/5 17/17/5
f 17/17/5 19/19/5 20/20/5
f 24/24/6 22/22/6 21/21/6
f 21/21/6 23/23/6 24/24/6
f 28/28/7 26/26/7 25/25/7
f 25/25/7 27/27/7 28/28/7
f 32/32/8 30/30/8 29/29/8
f 29/29/8 31/31/8 32/32/8
f 36/31/9 34/29/9 33/33/9
f 33/33/9 35/34/9 36/31/9
f 31/31/8 29/29/8 37/33/8
f 37/33/8 38/34/8 31/31/8
f 40/32/9 39/30/9 34/29/9
f 34/29/9 36/31/9 40/32/9
f 44/38/10 42/36/10 41/35/10
f 41/35/10 43/37/10 44/38/10
f 27/41/11 45/39/11 46/40/11
f 46/40/11 28/42/11 27/41/11
f 48/45/13 47/43/12 45/44/13
f 45/44/13 27/46/14 48/45/13
f 28/49/16 46/47/15 49/48/16
f 49/48/16 50/50/17 28/49/16
f 6/53/18 49/51/18 47/52/18
f 47/52/18 5/54/18 6/53/18
f 51/57/19 20/55/19 19/56/19
f 19/56/19 52/58/19 51/57/19
f 44/61/21 53/59/20 52/60/21
f 52/60/21 54/62/22 44/61/21
f 56/65/24 51/63/23 55/64/24
f 55/64/24 43/66/25 56/65/24
f 43/69/26 55/67/26 53/68/26
f 53/68/26 44/70/26 43/69/26
f 22/82/31 51/80/31 52/79/31
f 52/79/31 21/81/31 22/82/31
f 21/86/9 52/84/9 53/83/9
f 53/83/9 23/85/9 21/86/9
f 24/90/8 55/88/8 51/87/8
f 51/87/8 22/89/8 24/90/8
f 23/94/32 53/92/32 55/91/32
f 55/91/32 24/93/32 23/94/32
f 2/98/33 46/96/33 45/95/33
f 45/95/33 1/97/33 2/98/33
f 1/90/9 45/88/9 47/87/9
f 47/87/9 3/99/9 1/90/9
f 4/100/8 49/84/8 46/83/8
f 46/83/8 2/85/8 4/100/8
f 3/104/34 47/102/34 49/101/34
f 49/101/34 4/103/34 3/104/34
f 58/107/36 30/105/35 57/106/36
f 57/106/36 59/108/37 58/107/36
f 60/111/39 29/109/38 30/110/39
f 30/110/39 58/112/40 60/111/39
f 61/115/42 37/113/41 29/114/42
f 29/114/42 60/116/43 61/115/42
f 63/119/45 62/117/44 37/118/45
f 37/118/45 61/120/46 63/119/45
f 65/107/48 39/105/47 64/106/48
f 64/106/48 66/108/49 65/107/48
f 67/123/51 34/121/50 39/122/51
f 39/122/51 65/124/52 67/123/51
f 68/115/54 33/113/53 34/125/54
f 34/125/54 67/116/55 68/115/54
f 70/119/57 69/117/56 33/118/57
f 33/118/57 68/120/58 70/119/57
f 73/128/59 71/126/59 72/127/59
f 72/127/59 74/129/59 73/128/59
f 75/132/60 41/130/60 42/131/60
f 42/131/60 76/133/60 75/132/60
f 77/136/61 25/134/61 26/135/61
f 26/135/61 78/137/61 77/136/61
f 92/161/76 75/159/76 76/158/76
f 76/158/76 91/160/76 92/161/76
f 93/165/8 78/163/8 75/162/8
f 75/162/8 92/164/8 93/165/8
f 94/169/77 77/167/77 78/166/77
f 78/166/77 93/168/77 94/169/77
f 91/173/78 76/171/78 77/170/78
f 77/170/78 94/172/78 91/173/78
f 71/177/79 92/175/79 91/174/79
f 91/174/79 72/176/79 71/177/79
f 73/181/80 93/179/80 92/178/80
f 92/178/80 71/180/80 73/181/80
f 74/185/81 94/183/81 93/182/81
f 93/182/81 73/184/81 74/185/81
f 72/189/82 91/187/82 94/186/82
f 94/186/82 74/188/82 72/189/82
f 95/192/84 8/190/83 7/191/84
f 7/191/84 96/193/85 95/192/84
f 31/196/87 97/194/86 96/195/87
f 96/195/87 32/197/88 31/196/87
f 35/200/90 95/198/89 98/199/90
f 98/199/90 36/201/91 35/200/90
f 99/204/92 98/202/92 97/203/92
f 97/203/92 100/205/92 99/204/92
f 38/208/94 101/206/93 100/207/94
f 100/207/94 31/209/95 38/208/94
f 36/212/97 99/210/96 102/211/97
f 102/211/97 40/213/98 36/212/97
f 18/216/100 102/214/99 101/215/100
f 101/215/100 17/217/101 18/216/100
f 10/243/110 95/241/109 96/240/108
f 96/240/108 9/242/109 10/243/110
f 9/247/9 96/245/9 97/244/9
f 97/244/9 11/246/9 9/247/9
f 12/251/9 98/249/9 95/248/9
f 95/248/9 10/250/9 12/251/9
f 11/255/113 97/253/112 98/252/111
f 98/252/111 12/254/112 11/255/113
f 14/259/116 99/257/115 100/256/114
f 100/256/114 13/258/115 14/259/116
f 13/263/9 100/261/9 101/260/9
f 101/260/9 15/262/9 13/263/9
f 16/267/9 102/265/9 99/264/9
f 99/264/9 14/266/9 16/267/9
f 15/271/119 101/269/118 102/268/117
f 102/268/117 16/270/118 15/271/119

